# xmcd
#
# Track frame offsets:
#	182
#	16410
#	28542
#	45242
#	58837
#	75535
#	91732
#	107570
#	122550
#	138645
#	152320
# Disc length: 2406 seconds
# Revision: 7
# Processed by: cddbd v1.5.2PL0 Copyright (c) Steve Scherf et al.
#
# Submitted via: libkcddb 0.31
#
DISCID=7809640b
DTITLE=Michael Peterson - Michael Peterson
DYEAR=1997
DGENRE=Country
TTITLE0=Lost In The Shuffle
TTITLE1=Love's Great
TTITLE2=When The Bartender Cries
TTITLE3=Drink, Swear, Steal and Lie
TTITLE4=I Finally Passed The Bar
TTITLE5=From Here To Eternity
TTITLE6=That's What They Said About The Buffalo
TTITLE7=Too Good To Be True
TTITLE8=Since I Thought I Knew It All
TTITLE9=By The Book
TTITLE10=For A Song
EXTD=
EXTT0=
EXTT1=
EXTT2=
EXTT3=
EXTT4=
EXTT5=
EXTT6=
EXTT7=
EXTT8=
EXTT9=
EXTT10=
PLAYORDER=
